Coordinates
version=1
nRows=14
nColumns=36
inDegrees=yes

Units are S.I. units (second, meters, Newtons, ...)
If the header above contains a line with 'inDegrees', this indicates whether rotational values are in degrees (yes) or radians (no).

endheader
time	pelvis_tilt	pelvis_list	pelvis_rotation	pelvis_tx	pelvis_ty	pelvis_tz	hip_flexion_r	hip_adduction_r	hip_rotation_r	knee_angle_r	knee_angle_r_beta	ankle_angle_r	subtalar_angle_r	mtp_angle_r	hip_flexion_l	hip_adduction_l	hip_rotation_l	knee_angle_l	knee_angle_l_beta	ankle_angle_l	subtalar_angle_l	mtp_angle_l	lumbar_extension	lumbar_bending	lumbar_rotation	arm_flex_r	arm_add_r	arm_rot_r	elbow_flex_r	pro_sup_r	arm_flex_l	arm_add_l	arm_rot_l	elbow_flex_l	pro_sup_l
     29.68333330	     -5.58831354	     -1.77546859	      4.86265331	      0.81101655	      1.02057006	      0.88218336	     -6.67814145	      4.89083543	     -8.79688527	      5.65509307	      0.09869999	     15.90653471	      0.89266587	     -7.49999987	     30.84623021	     -2.55865989	     -1.50169029	      9.88301882	      0.17249122	      7.62169960	      6.18806476	     -7.49999987	     -3.95803638	      5.36752886	      3.96654568	      7.79319768	    -12.16743596	      2.19498010	     25.45525375	     71.82394793	     -4.21910729	     -5.39564630	      3.32390368	     17.43126410	     65.63236948
     29.70000000	     -5.82781366	     -1.51109066	      4.56964964	      0.81216374	      1.01657377	      0.87796313	     -6.86492085	      4.32749008	     -8.40787545	      6.36379856	      0.11106924	     16.30557508	      0.16926161	     -7.49999987	     31.00958854	     -2.24460416	     -2.17118942	     11.41774021	      0.19927716	      6.63373263	      6.21445562	     -7.49999987	     -3.47313241	      5.08815067	      4.01262856	      7.58311591	    -12.00955015	      2.58220471	     24.68246996	     71.53905227	     -3.90918202	     -5.31710933	      3.46533321	     17.22160816	     65.66758624
     29.71666670	     -6.04676889	     -1.26534290	      4.12933804	      0.81463577	      1.01511853	      0.87479009	     -6.90720894	      3.71084641	     -7.92107434	      7.31500543	      0.12767093	     16.35406548	     -0.68692392	     -7.49999987	     31.02940268	     -2.06146563	     -2.91864989	     12.98458994	      0.22662385	      5.43929948	      6.16563413	     -7.49999987	     -3.10679839	      4.86517800	      4.22953205	      7.17294102	    -11.96341089	      2.69583360	     24.01270634	     71.66922776	     -3.57839557	     -5.26680079	      3.50946083	     17.43469063	     65.80964675
     29.73333330	     -6.03828087	     -1.09442453	      3.87052659	      0.81907823	      1.01475790	      0.87141966	     -7.18404406	      3.17122190	     -7.81659989	      8.24627522	      0.14392465	     16.16107858	     -0.91148829	     -7.49999987	     30.69693891	     -1.88199947	     -3.20948683	     14.40584557	      0.25142944	      4.42480730	      6.16787730	     -7.49999987	     -2.84363690	      4.82911290	      3.95565009	      6.54980161	    -11.93692056	      2.72286087	     23.71700166	     71.67760451	     -3.37221695	     -5.17816979	      3.52174630	     17.53516698	     65.82428414
     29.75000000	     -6.48512691	     -0.67449916	      3.05087968	      0.82368812	      1.01323095	      0.86833216	     -6.59353399	      2.27450592	     -6.81493011	      9.90349344	      0.17284857	     16.12549968	     -2.24889039	     -7.49999987	     30.70792313	     -1.74613816	     -4.00536307	     15.66283585	      0.27336806	      3.35967891	      5.79690925	     -7.49999987	     -2.20922912	      4.40353089	      4.52273108	      5.95965789	    -11.87608887	      2.75871759	     22.85370151	     71.69070592	     -2.94028229	     -5.25850682	      3.48500603	     17.75770646	     65.85340264
     29.76666670	     -7.11094310	     -0.44349672	      2.28747997	      0.82700073	      1.01139059	      0.86562671	     -5.80193152	      1.66773705	     -5.31273479	     11.54910399	      0.20156989	     15.36492322	     -4.15768005	     -7.49999987	     30.87848365	     -1.77963378	     -4.66971769	     16.86623499	      0.29437133	      2.72832812	      5.59873755	     -7.49999987	     -1.06691303	      4.22618422	      5.21873926	      4.95816866	    -11.86240840	      2.51926067	     21.78443177	     71.57133347	     -2.59853198	     -5.23172445	      3.48206954	     17.67870389	     65.91541167
     29.78333330	     -7.27778452	     -0.05911864	      1.60970397	      0.82792357	      1.01162052	      0.86410826	     -5.24418467	      0.94908720	     -3.96564278	     13.73059576	      0.23964410	     14.85558735	     -5.63771647	     -7.49999987	     30.51058953	     -1.63685041	     -5.26438681	     18.00588363	      0.31426195	      2.38504641	      5.19448136	     -7.49999987	     -0.60876476	      3.89050539	      5.53353249	      4.23116419	    -11.76142707	      1.95335882	     21.31341007	     70.78153745	     -2.25299055	     -5.28749132	      3.12550292	     17.85221562	     65.53246497
     29.80000000	     -7.64975967	      0.26040998	      0.97114459	      0.82836327	      1.01305124	      0.86311843	     -4.16189270	      0.31997574	     -2.63815699	     16.55023785	      0.28885614	     14.23294695	     -6.87737527	     -7.49999987	     30.39171202	     -1.49636296	     -5.72019065	     19.26004042	      0.33615112	      2.28588842	      4.36578116	     -7.49999987	      0.18435291	      3.59987427	      6.03986663	      3.32899115	    -11.69094282	      1.24523589	     20.99615156	     70.18201873	     -1.59594412	     -5.36464888	      3.32300674	     17.27417881	     65.53595899
     29.81666670	     -7.80817714	      0.64777257	      0.26945434	      0.82850107	      1.01477292	      0.86201293	     -3.05677975	     -0.29529192	     -1.06354118	     19.81155525	      0.34577687	     13.03417537	     -8.47590345	     -7.49999987	     30.02158530	     -1.30796706	     -6.28226568	     20.48016964	      0.35744639	      2.57136196	      3.48702012	     -7.49999987	      0.65358208	      3.21761575	      6.54041767	      2.62068040	    -11.55674659	      0.61433002	     20.65360188	     69.66828496	     -1.01454677	     -5.59765332	      3.17096568	     17.41571168	     65.40609242
     29.83333330	     -8.06582065	      1.00446241	     -0.40924450	      0.82702729	      1.01561382	      0.86016814	     -1.57623781	     -0.83047205	      0.45742620	     23.48022457	      0.40980723	     11.33905592	    -10.03155245	     -7.49999987	     29.75384233	     -1.11516298	     -6.82930397	     21.56204954	      0.37632876	      3.08877669	      2.51219127	     -7.49999987	      1.24154128	      2.88323910	      7.09141280	      1.92685613	    -11.42942193	      0.08799530	     20.25034967	     69.32397964	     -0.33626013	     -5.87660782	      2.94608078	     17.57886325	     65.40282550
     29.85000000	     -8.21792132	      1.36675610	     -0.96510739	      0.82505549	      1.01540330	      0.85767529	      0.13259411	     -1.33670118	      1.78022440	     27.63110395	      0.48225374	      8.91746051	    -11.58320025	     -7.49999987	     29.30112145	     -0.84176479	     -7.29951176	     22.33390855	      0.38980024	      3.71904600	      1.54358321	     -7.49999987	      1.59980549	      2.55135824	      7.46760669	      1.38627404	    -11.29436506	     -0.23225625	     19.80056868	     69.09503670	      0.30584754	     -6.15128921	      2.57687332	     18.00204899	     65.43479200
     29.86666670	     -8.24365981	      1.84908175	     -1.47873877	      0.82555677	      1.01414932	      0.85492019	      2.20862914	     -1.94121669	      3.00866587	     32.54974723	      0.56810026	      5.70140508	    -13.05584289	     -7.49999987	     28.55708916	     -0.41449171	     -7.77712488	     22.76360556	      0.39729987	      4.39950733	      0.62079832	     -7.49999987	      1.74225660	      2.04977957	      7.59622054	      0.95797011	    -11.11767326	     -0.22296876	     19.34905863	     69.19833658	      0.86280735	     -6.43382099	      2.42149990	     18.31192780	     65.57940427
     29.88333330	     -8.49850695	      2.27467513	     -1.96729044	      0.82864493	      1.01137043	      0.85150124	      4.98502398	     -2.41389805	      4.17624628	     38.06932035	      0.66443498	      1.26045999	    -14.83095918	     -7.49999987	     27.97383698	     -0.05558402	     -8.26498479	     23.08325046	      0.40287872	      5.36822742	      0.02731045	     -7.49999987	      2.20438091	      1.62873095	      7.81978495	      0.41079487	    -10.94631026	     -0.23352519	     18.64580091	     69.39480434	      1.33722703	     -6.67682248	      2.00829150	     18.71277887	     65.85993588
     29.90000000	     -8.60228901	      2.90456629	     -2.49290206	      0.83173291	      1.00910280	      0.84725986	      7.84208731	     -3.10686625	      5.14394832	     43.64039930	      0.76166865	     -2.98726460	    -15.80010065	     -7.49999987	     27.13221305	      0.49887420	     -8.89365129	     23.17753521	      0.40452430	      6.40059922	     -0.42296765	     -7.49999987	      2.41816749	      0.95991690	      7.82183323	      0.03581391	    -10.75904480	     -0.22742405	     18.06930365	     69.62319286	      1.72360808	     -7.03918875	      1.43811606	     19.27744877	     66.18026354
